# xmcd CD database file
#
# Track frame offsets:
#	150
#	21719
#	45929
#	62413
#	84420
#	97028
#	113820
#	128890
#	149810
#
# Disc length: 2372 seconds
#
# Revision: 1
# Processed by: cddbd v1.5.2PL0 Copyright (c) Steve Scherf et al.
# Submitted via: CDex 1.70beta2
#
DISCID=7c094209
DTITLE=Stephan Eicher - Les Chansons Bleues
DYEAR=1983
DGENRE=Blues
TTITLE0=Sweetheart
TTITLE1=Les Filles Du Limmatquai
TTITLE2=J.B.G
TTITLE3=La Pièce
TTITLE4=Noise Boys
TTITLE5=Nice
TTITLE6=Tu Tu (A Little Time With You)
TTITLE7=You've Lost That Lovin Feelin
TTITLE8=La Chanson Bleue
EXTD=YEAR: 1983
EXTT0=
EXTT1=
EXTT2=
EXTT3=
EXTT4=
EXTT5=
EXTT6=
EXTT7=
EXTT8=
PLAYORDER=
